<svg version="1.2" xmlns="http://www.w3.org/2000/svg" viewBox="0 0 119 118" width="119" height="118">
	<title>file</title>
	<style>
		.s0 { fill: #ffc045 } 
	</style>
	<path class="s0" d="m105.1 97.9c0.4 3 0.6 5.6 0.7 8.5-3.3 0-6.2 0-9.2 0-1.1-8.3-1.1-8.3-9.4-8.3q-25.2 0-50.5 0c-1.5 0-3 0-4.6 0 1.2-8 4-10.5 10.8-10.5q21.4 0 42.8 0c1.5 0 3.1 0 5.6 0-3.7-4.2-5.8-8-11.7-7.7-11.4 0.5-22.8 0.1-34.8-0.9 3.9-2.8 7.5-6.7 11.9-8 4.6-1.4 9.9-0.4 15.1-0.4-0.2-0.6-0.2-0.9-0.4-1-11.1-8-11.2-7.9-22.3 0.7-9 7-18.2 13.7-21.6 25.5-1 3.4-1.6 6.8-2.5 10.6-2.5 0-5.4 0-8.9 0 0-25 17.2-37.5 35.3-49.3-18-12.1-35-24.4-35.4-49.2 3.3 0 6.2 0 9.5 0 0.4 19.1 13.5 29.3 27.6 38.7 9.7 6.5 19.9 12.4 29.5 19.2 11.1 7.8 20 17.6 22.5 32.1z"/>
	<path class="s0" d="m73.3 16.2c6.1 0 11.6-0.3 17.2 0.1 4.3 0.3 6.1-1.3 5.7-5.6-0.1-0.9 0-1.8 0-2.9 3.2 0 6 0 9.2 0 1.3 7.6-1 14.8-4.7 21.1-6.1 10.4-15 18.5-25.4 24.4-2.2 1.2-6.5-1.4-9.9-2.3q0-0.8 0-1.6c2.2-1.6 4.3-3.2 7.9-5.8-11.5 1.1-21.4 0.5-28.3-9.3 11 0 21.7-0.4 32.4 0.1 6.1 0.3 10.2-1.6 12.7-7.7-10.1 0-20 0-29.9 0q-7.8 0-15.7 0c-8.7 0-10.6-1.6-12.6-10.5 13.7 0 27.3 0 41.4 0z"/>
</svg>